<svg width="114" height="19" viewBox="0 0 114 19" fill="none" xmlns="http://www.w3.org/2000/svg">
<path d="M15.9633 6.31418L11.5002 5.66106L9.50509 1.58838C9.4506 1.47687 9.36095 1.3866 9.25021 1.33173C8.97247 1.19367 8.63497 1.30872 8.49611 1.58838L6.50099 5.66106L2.0379 6.31418C1.91486 6.33188 1.80236 6.39029 1.71622 6.47878C1.61209 6.58655 1.55471 6.73153 1.55669 6.88188C1.55867 7.03222 1.61984 7.17563 1.72677 7.28058L4.95587 10.4506L4.19298 14.9268C4.17509 15.0309 4.18653 15.138 4.22601 15.2359C4.26549 15.3339 4.33143 15.4187 4.41634 15.4808C4.50126 15.5429 4.60175 15.5798 4.70644 15.5873C4.81112 15.5948 4.9158 15.5726 5.00861 15.5233L9.0006 13.41L12.9926 15.5233C13.1016 15.5817 13.2281 15.6012 13.3494 15.5799C13.6553 15.5268 13.861 15.2348 13.8082 14.9268L13.0453 10.4506L16.2744 7.28058C16.3623 7.19385 16.4203 7.08057 16.4379 6.95667C16.4854 6.64693 16.2709 6.3602 15.9633 6.31418V6.31418Z" fill="#F3CE5E"/>
<path d="M39.9633 6.31418L35.5002 5.66106L33.5051 1.58838C33.4506 1.47687 33.3609 1.3866 33.2502 1.33173C32.9725 1.19367 32.635 1.30872 32.4961 1.58838L30.501 5.66106L26.0379 6.31418C25.9149 6.33188 25.8024 6.39029 25.7162 6.47878C25.6121 6.58655 25.5547 6.73153 25.5567 6.88188C25.5587 7.03222 25.6198 7.17563 25.7268 7.28058L28.9559 10.4506L28.193 14.9268C28.1751 15.0309 28.1865 15.138 28.226 15.2359C28.2655 15.3339 28.3314 15.4187 28.4163 15.4808C28.5013 15.5429 28.6018 15.5798 28.7064 15.5873C28.8111 15.5948 28.9158 15.5726 29.0086 15.5233L33.0006 13.41L36.9926 15.5233C37.1016 15.5817 37.2281 15.6012 37.3494 15.5799C37.6553 15.5268 37.861 15.2348 37.8082 14.9268L37.0453 10.4506L40.2744 7.28058C40.3623 7.19385 40.4203 7.08057 40.4379 6.95667C40.4854 6.64693 40.2709 6.3602 39.9633 6.31418V6.31418Z" fill="#F3CE5E"/>
<path d="M63.9633 6.31418L59.5002 5.66106L57.5051 1.58838C57.4506 1.47687 57.3609 1.3866 57.2502 1.33173C56.9725 1.19367 56.635 1.30872 56.4961 1.58838L54.501 5.66106L50.0379 6.31418C49.9149 6.33188 49.8024 6.39029 49.7162 6.47878C49.6121 6.58655 49.5547 6.73153 49.5567 6.88188C49.5587 7.03222 49.6198 7.17563 49.7268 7.28058L52.9559 10.4506L52.193 14.9268C52.1751 15.0309 52.1865 15.138 52.226 15.2359C52.2655 15.3339 52.3314 15.4187 52.4163 15.4808C52.5013 15.5429 52.6018 15.5798 52.7064 15.5873C52.8111 15.5948 52.9158 15.5726 53.0086 15.5233L57.0006 13.41L60.9926 15.5233C61.1016 15.5817 61.2281 15.6012 61.3494 15.5799C61.6553 15.5268 61.861 15.2348 61.8082 14.9268L61.0453 10.4506L64.2744 7.28058C64.3623 7.19385 64.4203 7.08057 64.4379 6.95667C64.4854 6.64693 64.2709 6.3602 63.9633 6.31418V6.31418Z" fill="#F3CE5E"/>
<path d="M87.9633 6.31418L83.5002 5.66106L81.5051 1.58838C81.4506 1.47687 81.3609 1.3866 81.2502 1.33173C80.9725 1.19367 80.635 1.30872 80.4961 1.58838L78.501 5.66106L74.0379 6.31418C73.9149 6.33188 73.8024 6.39029 73.7162 6.47878C73.6121 6.58655 73.5547 6.73153 73.5567 6.88188C73.5587 7.03222 73.6198 7.17563 73.7268 7.28058L76.9559 10.4506L76.193 14.9268C76.1751 15.0309 76.1865 15.138 76.226 15.2359C76.2655 15.3339 76.3314 15.4187 76.4163 15.4808C76.5013 15.5429 76.6018 15.5798 76.7064 15.5873C76.8111 15.5948 76.9158 15.5726 77.0086 15.5233L81.0006 13.41L84.9926 15.5233C85.1016 15.5817 85.2281 15.6012 85.3494 15.5799C85.6553 15.5268 85.861 15.2348 85.8082 14.9268L85.0453 10.4506L88.2744 7.28058C88.3623 7.19385 88.4203 7.08057 88.4379 6.95667C88.4854 6.64693 88.2709 6.3602 87.9633 6.31418V6.31418Z" fill="#F3CE5E"/>
<path d="M111.963 6.31418L107.5 5.66106L105.505 1.58838C105.451 1.47687 105.361 1.3866 105.25 1.33173C104.972 1.19367 104.635 1.30872 104.496 1.58838L102.501 5.66106L98.0379 6.31418C97.9149 6.33188 97.8024 6.39029 97.7162 6.47878C97.6121 6.58655 97.5547 6.73153 97.5567 6.88188C97.5587 7.03222 97.6198 7.17563 97.7268 7.28058L100.956 10.4506L100.193 14.9268C100.175 15.0309 100.187 15.138 100.226 15.2359C100.265 15.3339 100.331 15.4187 100.416 15.4808C100.501 15.5429 100.602 15.5798 100.706 15.5873C100.811 15.5948 100.916 15.5726 101.009 15.5233L105.001 13.41L108.993 15.5233C109.102 15.5817 109.228 15.6012 109.349 15.5799C109.655 15.5268 109.861 15.2348 109.808 14.9268L109.045 10.4506L112.274 7.28058C112.362 7.19385 112.42 7.08057 112.438 6.95667C112.485 6.64693 112.271 6.3602 111.963 6.31418V6.31418Z" fill="#F3CE5E"/>
</svg>
